<!-- Animated using SVGANIMA - https://svganima.com -->
<svg width="190" height="59" viewBox="0 0 190 59" fill="" xmlns="http://www.w3.org/2000/svg" preserveAspectRatio="xMidYMid" id="svg5970" style="background-color: rgb(0, 0, 0);">
<defs id="defs3377"></defs><path d=" M 13.88 17 H 23.16 L 24.76 38.04 V 42.12 H 25.72 V 38.04 L 27.32 17 H 36.6 V 45 H 31.8 V 26.28 L 32.28 19.88 H 31.32 L 29.24 45 H 21.32 L 19.16 19.88 H 18.2 L 18.68 26.28 V 45 H 13.88 V 17 Z M 53.4522 42.12 C 52.9189 43.3733 52.1722 44.2667 51.2122 44.8 C 50.2522 45.3067 49.1322 45.56 47.8522 45.56 C 46.6522 45.56 45.5189 45.3333 44.4522 44.88 C 43.4122 44.4267 42.4922 43.76 41.6922 42.88 C 40.8922 42 40.2522 40.9333 39.7722 39.68 C 39.3189 38.4267 39.0922 37 39.0922 35.4 V 34.76 C 39.0922 33.1867 39.3189 31.7733 39.7722 30.52 C 40.2255 29.2667 40.8389 28.2 41.6122 27.32 C 42.3855 26.44 43.2789 25.7733 44.2922 25.32 C 45.3322 24.84 46.4389 24.6 47.6122 24.6 C 49.0255 24.6 50.1589 24.84 51.0122 25.32 C 51.8922 25.8 52.5855 26.5467 53.0922 27.56 H 53.8122 V 25.16 H 58.8522 V 39 C 58.8522 39.8 59.2122 40.2 59.9322 40.2 H 60.6922 V 45 H 57.2522 C 56.3455 45 55.5989 44.7333 55.0122 44.2 C 54.4522 43.6667 54.1722 42.9733 54.1722 42.12 H 53.4522 Z M 48.9722 40.76 C 50.4389 40.76 51.6122 40.28 52.4922 39.32 C 53.3722 38.3333 53.8122 37 53.8122 35.32 V 34.84 C 53.8122 33.16 53.3722 31.84 52.4922 30.88 C 51.6122 29.8933 50.4389 29.4 48.9722 29.4 C 47.5055 29.4 46.3322 29.8933 45.4522 30.88 C 44.5722 31.84 44.1322 33.16 44.1322 34.84 V 35.32 C 44.1322 37 44.5722 38.3333 45.4522 39.32 C 46.3322 40.28 47.5055 40.76 48.9722 40.76 Z M 64.1444 25.16 H 72.5444 V 28.04 H 73.2644 C 73.6377 26.9467 74.2644 26.1067 75.1444 25.52 C 76.051 24.9067 77.131 24.6 78.3844 24.6 C 80.3577 24.6 81.9444 25.2267 83.1444 26.48 C 84.3444 27.7067 84.9444 29.5867 84.9444 32.12 V 33 L 79.7444 33.48 V 32.92 C 79.7444 31.8267 79.4644 30.96 78.9044 30.32 C 78.3444 29.6533 77.5044 29.32 76.3844 29.32 C 75.2644 29.32 74.3844 29.7067 73.7444 30.48 C 73.1044 31.2533 72.7844 32.36 72.7844 33.8 V 40.2 H 77.3444 V 45 H 63.6644 V 40.2 H 67.7444 V 29.96 H 64.1444 V 25.16 Z M 89.0366 25.16 H 94.9166 V 17 H 99.9566 V 25.16 H 107.117 V 29.96 H 99.9566 V 39 C 99.9566 39.8 100.317 40.2 101.037 40.2 H 106.397 V 45 H 97.9966 C 97.0899 45 96.3432 44.7067 95.7566 44.12 C 95.1966 43.5333 94.9166 42.7867 94.9166 41.88 V 29.96 H 89.0366 V 25.16 Z M 114.449 40.2 H 121.169 V 29.96 H 114.929 V 25.16 H 126.209 V 40.2 H 131.969 V 45 H 114.449 V 40.2 Z M 127.449 19.28 C 127.449 19.8133 127.342 20.32 127.129 20.8 C 126.942 21.2533 126.675 21.6533 126.329 22 C 125.982 22.32 125.569 22.5867 125.089 22.8 C 124.635 22.9867 124.155 23.08 123.649 23.08 C 123.115 23.08 122.622 22.9867 122.169 22.8 C 121.715 22.5867 121.315 22.32 120.969 22 C 120.622 21.6533 120.342 21.2533 120.129 20.8 C 119.942 20.32 119.849 19.8133 119.849 19.28 C 119.849 18.7467 119.942 18.2533 120.129 17.8 C 120.342 17.32 120.622 16.92 120.969 16.6 C 121.315 16.2533 121.715 15.9867 122.169 15.8 C 122.622 15.5867 123.115 15.48 123.649 15.48 C 124.155 15.48 124.635 15.5867 125.089 15.8 C 125.569 15.9867 125.982 16.2533 126.329 16.6 C 126.675 16.92 126.942 17.32 127.129 17.8 C 127.342 18.2533 127.449 18.7467 127.449 19.28 Z M 143.621 45 H 138.581 V 25.16 H 143.621 V 28.12 H 144.341 C 144.794 27 145.528 26.1333 146.541 25.52 C 147.554 24.9067 148.741 24.6 150.101 24.6 C 151.061 24.6 151.954 24.76 152.781 25.08 C 153.634 25.3733 154.381 25.84 155.021 26.48 C 155.661 27.12 156.154 27.9333 156.501 28.92 C 156.874 29.9067 157.061 31.08 157.061 32.44 V 45 H 152.021 V 33.72 C 152.021 32.3067 151.674 31.2 150.981 30.4 C 150.314 29.5733 149.341 29.16 148.061 29.16 C 146.568 29.16 145.448 29.6667 144.701 30.68 C 143.981 31.6667 143.621 33 143.621 34.68 V 45 Z " fill="white" id="path2633"></path>
<path d=" M 164 14.5 H 177 V 44.5 H 164 V 14.5 Z " fill="white" id="path9086"><animate attributeType="auto" attributeName="opacity" values="1;0;1" calcMode="spline" keyTimes="0;0.5;1" keySplines="1 0 1 0;1 0 1 0" dur="2s" begin="0s" repeatCount="indefinite" additive="replace" accumulate="none" fill="freeze" id="animate5815"></animate></path>
</svg>