<svg width="707.719" height="146.099" viewBox="0 0 707.719 146.099" xmlns="http://www.w3.org/2000/svg"><g id="svgGroup" stroke-linecap="round" fill-rule="evenodd" font-size="9pt" stroke="#ffffff" stroke-width="0.25mm" fill="#ffffff" style="stroke:#ffffff;stroke-width:0.25mm;fill:#ffffff"><path d="M 706.152 41.994 L 700.879 41.994 Q 700.879 26.076 689.16 15.675 A 40.482 40.482 0 0 0 669.318 6.204 A 57.108 57.108 0 0 0 658.789 5.275 A 68.825 68.825 0 0 0 646.24 6.353 Q 635.88 8.276 628.467 13.625 A 31.688 31.688 0 0 0 621.878 19.867 A 23.375 23.375 0 0 0 616.895 34.572 Q 616.895 47.153 626.622 54.917 A 31.804 31.804 0 0 0 626.953 55.177 A 47.669 47.669 0 0 0 634.297 59.77 Q 642.251 63.883 654.402 67.416 A 205.379 205.379 0 0 0 660.156 68.996 Q 680.523 74.281 691.286 81.04 A 45.127 45.127 0 0 1 694.043 82.912 A 33.96 33.96 0 0 1 703.508 93.226 Q 707.715 100.494 707.715 109.865 A 31.265 31.265 0 0 1 701.66 128.859 A 35.565 35.565 0 0 1 691.232 138.25 A 47.058 47.058 0 0 1 684.473 141.603 A 61.501 61.501 0 0 1 668.683 145.565 A 77.636 77.636 0 0 1 659.473 146.095 A 79.849 79.849 0 0 1 643.961 144.648 A 63.959 63.959 0 0 1 631.738 140.968 A 46.659 46.659 0 0 1 622.14 135.651 A 35.567 35.567 0 0 1 613.232 126.369 A 37.855 37.855 0 0 1 607.419 110.237 A 48.759 48.759 0 0 1 607.031 104.006 L 612.305 104.006 Q 612.305 121.486 625.391 131.154 A 47.048 47.048 0 0 0 642.069 138.837 Q 648.726 140.512 656.539 140.773 A 87.633 87.633 0 0 0 659.473 140.822 A 66.865 66.865 0 0 0 673.015 139.525 Q 681.615 137.746 688.349 133.531 A 41.037 41.037 0 0 0 690.234 132.277 A 31.238 31.238 0 0 0 697.495 125.311 A 25.07 25.07 0 0 0 702.344 110.06 A 32.285 32.285 0 0 0 701.559 102.769 A 24.004 24.004 0 0 0 698.096 94.679 Q 694.492 89.336 687.373 85.046 A 55.065 55.065 0 0 0 684.717 83.547 Q 677.091 79.509 662.959 75.302 A 290.507 290.507 0 0 0 657.129 73.634 A 232.661 232.661 0 0 1 646.983 70.611 Q 635.932 67.02 629.443 63.381 Q 621.621 58.993 617.342 53.413 A 26.776 26.776 0 0 1 615.918 51.369 A 27.414 27.414 0 0 1 612.238 41.747 A 37.736 37.736 0 0 1 611.621 34.767 A 29.252 29.252 0 0 1 621.462 12.28 A 38.809 38.809 0 0 1 624.707 9.621 A 47.158 47.158 0 0 1 641.385 1.977 Q 648.042 0.31 655.856 0.05 A 88.077 88.077 0 0 1 658.789 0.002 A 60.293 60.293 0 0 1 673.195 1.662 A 50.394 50.394 0 0 1 683.35 5.324 A 41.644 41.644 0 0 1 695.216 13.843 A 38.416 38.416 0 0 1 700.195 20.265 A 40.039 40.039 0 0 1 706.123 40.303 A 48.196 48.196 0 0 1 706.152 41.994 Z M 344.238 1.955 L 349.512 1.955 L 349.512 98.244 A 62.661 62.661 0 0 1 347.965 112.582 A 41.486 41.486 0 0 1 336.426 133.449 A 43.669 43.669 0 0 1 315.255 144.601 A 64.527 64.527 0 0 1 300.977 146.095 A 63.974 63.974 0 0 1 286.101 144.462 A 43.508 43.508 0 0 1 265.527 133.449 A 41.971 41.971 0 0 1 253.706 111.709 A 62.184 62.184 0 0 1 252.344 98.634 L 252.344 1.955 L 257.617 1.955 L 257.617 98.049 A 52.955 52.955 0 0 0 259.217 111.429 A 37.604 37.604 0 0 0 269.482 129.299 A 39.947 39.947 0 0 0 290.549 139.91 A 57.053 57.053 0 0 0 300.977 140.822 A 54.278 54.278 0 0 0 314.6 139.201 A 39.042 39.042 0 0 0 332.422 129.299 A 38.178 38.178 0 0 0 343.197 108.99 A 55.697 55.697 0 0 0 344.238 97.951 L 344.238 1.955 Z M 45.801 144.142 L 0 144.142 L 0 1.955 L 37.402 1.955 Q 51.779 1.955 61.768 5.615 A 37.029 37.029 0 0 1 72.119 11.281 Q 83.887 20.607 83.887 38.381 A 41.816 41.816 0 0 1 82.807 48.129 A 30.429 30.429 0 0 1 77.344 59.767 A 28.214 28.214 0 0 1 63.505 69.401 A 37.802 37.802 0 0 1 58.887 70.607 A 35.582 35.582 0 0 1 81.348 82.277 Q 90.332 92.189 90.332 104.982 A 45.109 45.109 0 0 1 88.677 117.527 A 33.686 33.686 0 0 1 78.564 133.644 A 39.001 39.001 0 0 1 63.065 141.949 Q 55.397 144.142 45.801 144.142 Z M 392.48 1.955 L 392.48 138.869 L 465.43 138.869 L 465.43 144.142 L 387.109 144.142 L 387.109 1.955 L 392.48 1.955 Z M 221.289 62.404 L 221.289 83.693 A 87.903 87.903 0 0 1 219.654 101.024 A 68.229 68.229 0 0 1 214.697 116.359 A 53.492 53.492 0 0 1 204.895 130.955 A 48.11 48.11 0 0 1 195.898 138.332 A 49.907 49.907 0 0 1 172.777 145.896 A 61.853 61.853 0 0 1 167.773 146.095 A 54.716 54.716 0 0 1 148.666 142.882 A 47.938 47.938 0 0 1 128.906 129.006 Q 114.894 112.873 114.109 86.125 A 109.513 109.513 0 0 1 114.063 82.912 L 114.063 62.404 A 87.406 87.406 0 0 1 115.71 45.07 A 68.714 68.714 0 0 1 120.654 29.787 A 53.369 53.369 0 0 1 130.401 15.226 A 47.971 47.971 0 0 1 139.502 7.765 Q 151.758 0.002 167.578 0.002 A 55.433 55.433 0 0 1 184.327 2.458 A 48.499 48.499 0 0 1 195.752 7.765 A 49.606 49.606 0 0 1 212.901 26.361 A 60.849 60.849 0 0 1 214.648 29.836 Q 221.289 44.142 221.289 62.404 Z M 584.668 62.404 L 584.668 83.693 A 87.903 87.903 0 0 1 583.033 101.024 A 68.229 68.229 0 0 1 578.076 116.359 A 53.492 53.492 0 0 1 568.274 130.955 A 48.11 48.11 0 0 1 559.277 138.332 A 49.907 49.907 0 0 1 536.156 145.896 A 61.853 61.853 0 0 1 531.152 146.095 A 54.716 54.716 0 0 1 512.045 142.882 A 47.938 47.938 0 0 1 492.285 129.006 Q 478.273 112.873 477.488 86.125 A 109.513 109.513 0 0 1 477.441 82.912 L 477.441 62.404 A 87.406 87.406 0 0 1 479.089 45.07 A 68.714 68.714 0 0 1 484.033 29.787 A 53.369 53.369 0 0 1 493.78 15.226 A 47.971 47.971 0 0 1 502.881 7.765 Q 515.137 0.002 530.957 0.002 A 55.433 55.433 0 0 1 547.706 2.458 A 48.499 48.499 0 0 1 559.131 7.765 A 49.606 49.606 0 0 1 576.279 26.361 A 60.849 60.849 0 0 1 578.027 29.836 Q 584.668 44.142 584.668 62.404 Z M 216.016 82.912 L 216.016 62.209 A 82.731 82.731 0 0 0 214.326 44.996 Q 211.313 30.83 202.93 20.851 A 42.816 42.816 0 0 0 172.006 5.436 A 59.873 59.873 0 0 0 167.578 5.275 A 50.3 50.3 0 0 0 151.192 7.83 A 41.903 41.903 0 0 0 132.52 20.754 A 52.42 52.42 0 0 0 122.12 41.027 Q 119.434 50.812 119.434 62.892 L 119.434 83.693 A 83.237 83.237 0 0 0 120.82 99.226 A 63.81 63.81 0 0 0 125.342 113.722 Q 131.25 126.759 142.188 133.791 A 44.253 44.253 0 0 0 161.326 140.461 A 56.23 56.23 0 0 0 167.773 140.822 A 51.407 51.407 0 0 0 183.753 138.453 A 41.453 41.453 0 0 0 203.027 125.295 A 52.5 52.5 0 0 0 213.162 105.6 Q 215.302 98.025 215.837 89.05 A 103.162 103.162 0 0 0 216.016 82.912 Z M 579.395 82.912 L 579.395 62.209 A 82.731 82.731 0 0 0 577.704 44.996 Q 574.692 30.83 566.309 20.851 A 42.816 42.816 0 0 0 535.385 5.436 A 59.873 59.873 0 0 0 530.957 5.275 A 50.3 50.3 0 0 0 514.571 7.83 A 41.903 41.903 0 0 0 495.898 20.754 A 52.42 52.42 0 0 0 485.499 41.027 Q 482.813 50.812 482.813 62.892 L 482.813 83.693 A 83.237 83.237 0 0 0 484.199 99.226 A 63.81 63.81 0 0 0 488.721 113.722 Q 494.629 126.759 505.566 133.791 A 44.253 44.253 0 0 0 524.705 140.461 A 56.23 56.23 0 0 0 531.152 140.822 A 51.407 51.407 0 0 0 547.132 138.453 A 41.453 41.453 0 0 0 566.406 125.295 A 52.5 52.5 0 0 0 576.541 105.6 Q 578.681 98.025 579.216 89.05 A 103.162 103.162 0 0 0 579.395 82.912 Z M 48.438 73.927 L 5.273 73.927 L 5.273 138.869 L 46.387 138.869 Q 60.458 138.869 69.82 133.448 A 31.939 31.939 0 0 0 74.756 129.933 A 29.232 29.232 0 0 0 84.566 111.769 A 42.369 42.369 0 0 0 85.059 105.177 Q 85.059 91.701 75.098 82.961 Q 65.137 74.22 48.438 73.927 Z M 5.273 7.228 L 5.273 68.654 L 39.355 68.654 A 80.948 80.948 0 0 0 50.051 67.996 Q 55.474 67.271 59.875 65.748 A 31.456 31.456 0 0 0 68.652 61.183 A 23.785 23.785 0 0 0 77.35 47.824 Q 78.425 43.741 78.509 38.828 A 49.079 49.079 0 0 0 78.516 37.99 A 32.316 32.316 0 0 0 75.697 24.009 Q 69.276 10.473 48.221 7.851 A 86.789 86.789 0 0 0 38.574 7.228 L 5.273 7.228 Z" vector-effect="non-scaling-stroke"/></g></svg>