<svg width="731.934" height="142.189" viewBox="0 0 731.934 142.189" xmlns="http://www.w3.org/2000/svg"><g id="svgGroup" stroke-linecap="round" fill-rule="evenodd" font-size="9pt" stroke="#ffffff" stroke-width="0.25mm" fill="#ffffff" style="stroke:#ffffff;stroke-width:0.25mm;fill:#ffffff"><path d="M 0 0.002 L 38.281 0.002 L 74.805 103.127 L 111.133 0.002 L 149.609 0.002 L 149.609 142.189 L 120.215 142.189 L 120.215 103.322 L 123.145 36.232 L 84.766 142.189 L 64.648 142.189 L 26.367 36.33 L 29.297 103.322 L 29.297 142.189 L 0 142.189 L 0 0.002 Z M 731.934 0.002 L 731.934 142.189 L 702.637 142.189 L 645.605 48.634 L 645.605 142.189 L 616.309 142.189 L 616.309 0.002 L 645.605 0.002 L 702.734 93.752 L 702.734 0.002 L 731.934 0.002 Z M 390.82 142.189 L 364.16 90.138 L 340.82 90.138 L 340.82 142.189 L 311.523 142.189 L 311.523 0.002 L 364.355 0.002 Q 381.791 0.002 393.708 5.38 A 42.327 42.327 0 0 1 403.223 11.232 A 36.575 36.575 0 0 1 416.309 34.876 A 53.749 53.749 0 0 1 416.895 42.97 A 55.525 55.525 0 0 1 415.895 53.798 Q 414.55 60.562 411.397 65.938 A 34.095 34.095 0 0 1 410.596 67.238 A 38.467 38.467 0 0 1 400.266 77.782 A 53.179 53.179 0 0 1 391.504 82.716 L 422.266 140.822 L 422.266 142.189 L 390.82 142.189 Z M 541.309 0.002 L 541.309 23.732 L 497.754 23.732 L 497.754 142.189 L 468.457 142.189 L 468.457 23.732 L 425.488 23.732 L 425.488 0.002 L 541.309 0.002 Z M 267.09 142.189 L 257.227 112.892 L 205.859 112.892 L 196.094 142.189 L 164.941 142.189 L 217.871 0.002 L 245.02 0.002 L 298.242 142.189 L 267.09 142.189 Z M 589.16 0.002 L 589.16 142.189 L 559.863 142.189 L 559.863 0.002 L 589.16 0.002 Z M 340.82 23.732 L 340.82 66.408 L 364.453 66.408 A 34.892 34.892 0 0 0 371.159 65.803 Q 377.475 64.565 381.543 60.793 Q 387.598 55.177 387.598 45.314 A 28.578 28.578 0 0 0 386.892 38.773 A 19.066 19.066 0 0 0 381.885 29.494 A 17.651 17.651 0 0 0 375.053 25.311 Q 370.541 23.732 364.355 23.732 L 340.82 23.732 Z M 231.445 35.939 L 213.77 89.162 L 249.316 89.162 L 231.445 35.939 Z" vector-effect="non-scaling-stroke"/></g></svg>