<svg width="1382.232" height="190.235" viewBox="0 0 1382.232 190.235" xmlns="http://www.w3.org/2000/svg"><g id="svgGroup" stroke-linecap="round" fill-rule="evenodd" font-size="9pt" stroke="#ffffff" stroke-width="0.25mm" fill="#ffffff" style="stroke:#ffffff;stroke-width:0.25mm;fill:#ffffff"><path d="M 346.387 147.559 L 319.727 95.508 L 296.387 95.508 L 296.387 147.559 L 267.09 147.559 L 267.09 5.372 L 319.922 5.372 Q 337.357 5.372 349.275 10.75 A 42.327 42.327 0 0 1 358.789 16.602 A 36.575 36.575 0 0 1 371.875 40.247 A 53.749 53.749 0 0 1 372.461 48.34 A 55.525 55.525 0 0 1 371.461 59.168 Q 370.116 65.932 366.964 71.308 A 34.095 34.095 0 0 1 366.162 72.608 A 38.467 38.467 0 0 1 355.833 83.152 A 53.179 53.179 0 0 1 347.07 88.087 L 377.832 146.192 L 377.832 147.559 L 346.387 147.559 Z M 734.473 65.821 L 734.473 89.454 L 678.223 89.454 L 678.223 147.559 L 648.926 147.559 L 648.926 5.372 L 741.504 5.372 L 741.504 29.102 L 678.223 29.102 L 678.223 65.821 L 734.473 65.821 Z M 1381.934 74.024 L 1353.711 74.024 A 15.379 15.379 0 0 0 1352.936 69.048 A 13.074 13.074 0 0 0 1349.805 64.014 Q 1346.783 60.955 1341.132 60.262 A 29.089 29.089 0 0 0 1337.598 60.059 A 25.35 25.35 0 0 0 1333.314 60.398 Q 1331.001 60.795 1329.154 61.658 A 12.09 12.09 0 0 0 1326.563 63.282 A 10.826 10.826 0 0 0 1323.759 66.689 A 10.354 10.354 0 0 0 1322.656 71.485 A 8.296 8.296 0 0 0 1325.675 77.985 A 12.495 12.495 0 0 0 1327.1 79.053 A 20.299 20.299 0 0 0 1330.082 80.612 Q 1334.509 82.525 1342.09 84.034 Q 1352.637 86.133 1359.863 88.77 A 45.476 45.476 0 0 1 1370.166 93.976 Q 1381.661 101.951 1382.2 115.811 A 35.458 35.458 0 0 1 1382.227 117.188 A 26.946 26.946 0 0 1 1373.067 137.955 A 36.399 36.399 0 0 1 1369.824 140.577 A 45.16 45.16 0 0 1 1354.098 147.678 Q 1347.845 149.226 1340.536 149.468 A 82.946 82.946 0 0 1 1337.793 149.512 A 63.602 63.602 0 0 1 1325.256 148.328 A 49.843 49.843 0 0 1 1314.209 144.776 A 43.443 43.443 0 0 1 1304.516 138.751 A 36.554 36.554 0 0 1 1298.047 131.788 A 31.322 31.322 0 0 1 1292.961 120.745 A 29.639 29.639 0 0 1 1292.188 113.965 L 1318.945 113.965 Q 1319.336 121.485 1324.512 125.489 A 18.034 18.034 0 0 0 1330.893 128.584 Q 1334.237 129.493 1338.379 129.493 A 34.267 34.267 0 0 0 1342.843 129.222 Q 1345.108 128.923 1346.951 128.296 A 13.371 13.371 0 0 0 1350.635 126.417 Q 1354.785 123.34 1354.785 118.36 A 8.572 8.572 0 0 0 1351.545 111.52 A 13.299 13.299 0 0 0 1349.658 110.206 A 27.124 27.124 0 0 0 1346.284 108.581 Q 1342.503 107.04 1336.844 105.691 A 124.781 124.781 0 0 0 1333.203 104.883 Q 1295.508 96.973 1295.508 72.852 A 28.51 28.51 0 0 1 1304.928 51.328 A 38.702 38.702 0 0 1 1307.178 49.366 A 40.891 40.891 0 0 1 1323.566 41.497 Q 1330.038 39.942 1337.695 39.942 Q 1353.963 39.942 1364.963 46.136 A 38.597 38.597 0 0 1 1369.873 49.415 A 31.92 31.92 0 0 1 1378.327 59.162 Q 1381.934 65.746 1381.934 74.024 Z M 496.875 5.372 L 496.875 29.102 L 453.32 29.102 L 453.32 147.559 L 424.023 147.559 L 424.023 29.102 L 381.055 29.102 L 381.055 5.372 L 496.875 5.372 Z M 925.879 5.372 L 925.879 124.024 L 988.086 124.024 L 988.086 147.559 L 896.582 147.559 L 896.582 5.372 L 925.879 5.372 Z M 54.98 97.462 L 29.297 97.462 L 29.297 147.559 L 0 147.559 L 0 5.372 L 55.469 5.372 A 74.211 74.211 0 0 1 70.079 6.746 A 56.867 56.867 0 0 1 83.643 11.231 A 45.156 45.156 0 0 1 96.647 20.482 A 41.709 41.709 0 0 1 102.344 27.882 A 45.42 45.42 0 0 1 108.757 48.628 A 55.46 55.46 0 0 1 108.887 52.442 A 49.078 49.078 0 0 1 106.79 67.147 A 38.469 38.469 0 0 1 94.58 85.401 A 47.885 47.885 0 0 1 76.905 94.632 Q 69.801 96.71 61.307 97.262 A 97.593 97.593 0 0 1 54.98 97.462 Z M 245.801 73.34 L 245.801 79.688 A 100.669 100.669 0 0 1 244.17 98.235 A 75.605 75.605 0 0 1 238.379 116.505 A 58.763 58.763 0 0 1 226.958 133.102 A 53.741 53.741 0 0 1 217.139 140.919 A 57.258 57.258 0 0 1 190.935 149.303 A 70.623 70.623 0 0 1 185.449 149.512 A 62.797 62.797 0 0 1 165.802 146.517 A 56.087 56.087 0 0 1 153.906 141.016 A 55.683 55.683 0 0 1 133.905 119.642 A 67.721 67.721 0 0 1 132.422 116.749 A 76.526 76.526 0 0 1 125.748 94.598 A 99.102 99.102 0 0 1 124.707 80.469 L 124.707 73.438 A 98.798 98.798 0 0 1 126.483 54.278 A 75.574 75.574 0 0 1 132.275 36.475 A 60.098 60.098 0 0 1 143.11 20.5 A 53.503 53.503 0 0 1 153.662 11.964 A 57.386 57.386 0 0 1 179.796 3.627 A 70.324 70.324 0 0 1 185.254 3.419 A 62.954 62.954 0 0 1 204.422 6.255 A 55.472 55.472 0 0 1 216.846 11.964 A 55.263 55.263 0 0 1 236.243 32.6 A 67.879 67.879 0 0 1 238.232 36.475 Q 245.801 52.442 245.801 73.34 Z M 627.637 73.34 L 627.637 79.688 A 100.669 100.669 0 0 1 626.006 98.235 A 75.605 75.605 0 0 1 620.215 116.505 A 58.763 58.763 0 0 1 608.794 133.102 A 53.741 53.741 0 0 1 598.975 140.919 A 57.258 57.258 0 0 1 572.771 149.303 A 70.623 70.623 0 0 1 567.285 149.512 A 62.797 62.797 0 0 1 547.638 146.517 A 56.087 56.087 0 0 1 535.742 141.016 A 55.683 55.683 0 0 1 515.741 119.642 A 67.721 67.721 0 0 1 514.258 116.749 A 76.526 76.526 0 0 1 507.584 94.598 A 99.102 99.102 0 0 1 506.543 80.469 L 506.543 73.438 A 98.798 98.798 0 0 1 508.319 54.278 A 75.574 75.574 0 0 1 514.111 36.475 A 60.098 60.098 0 0 1 524.946 20.5 A 53.503 53.503 0 0 1 535.498 11.964 A 57.386 57.386 0 0 1 561.632 3.627 A 70.324 70.324 0 0 1 567.09 3.419 A 62.954 62.954 0 0 1 586.258 6.255 A 55.472 55.472 0 0 1 598.682 11.964 A 55.263 55.263 0 0 1 618.079 32.6 A 67.879 67.879 0 0 1 620.068 36.475 Q 627.637 52.442 627.637 73.34 Z M 875.293 73.34 L 875.293 79.688 A 100.669 100.669 0 0 1 873.662 98.235 A 75.605 75.605 0 0 1 867.871 116.505 A 58.763 58.763 0 0 1 856.45 133.102 A 53.741 53.741 0 0 1 846.631 140.919 A 57.258 57.258 0 0 1 820.427 149.303 A 70.623 70.623 0 0 1 814.941 149.512 A 62.797 62.797 0 0 1 795.294 146.517 A 56.087 56.087 0 0 1 783.398 141.016 A 55.683 55.683 0 0 1 763.397 119.642 A 67.721 67.721 0 0 1 761.914 116.749 A 76.526 76.526 0 0 1 755.241 94.598 A 99.102 99.102 0 0 1 754.199 80.469 L 754.199 73.438 A 98.798 98.798 0 0 1 755.975 54.278 A 75.574 75.574 0 0 1 761.768 36.475 A 60.098 60.098 0 0 1 772.602 20.5 A 53.503 53.503 0 0 1 783.154 11.964 A 57.386 57.386 0 0 1 809.288 3.627 A 70.324 70.324 0 0 1 814.746 3.419 A 62.954 62.954 0 0 1 833.914 6.255 A 55.472 55.472 0 0 1 846.338 11.964 A 55.263 55.263 0 0 1 865.735 32.6 A 67.879 67.879 0 0 1 867.725 36.475 Q 875.293 52.442 875.293 73.34 Z M 1179.98 73.34 L 1179.98 79.688 A 100.669 100.669 0 0 1 1178.35 98.235 A 75.605 75.605 0 0 1 1172.559 116.505 A 58.763 58.763 0 0 1 1161.138 133.102 A 53.741 53.741 0 0 1 1151.318 140.919 A 57.258 57.258 0 0 1 1125.115 149.303 A 70.623 70.623 0 0 1 1119.629 149.512 A 62.797 62.797 0 0 1 1099.982 146.517 A 56.087 56.087 0 0 1 1088.086 141.016 A 55.683 55.683 0 0 1 1068.085 119.642 A 67.721 67.721 0 0 1 1066.602 116.749 A 76.526 76.526 0 0 1 1059.928 94.598 A 99.102 99.102 0 0 1 1058.887 80.469 L 1058.887 73.438 A 98.798 98.798 0 0 1 1060.662 54.278 A 75.574 75.574 0 0 1 1066.455 36.475 A 60.098 60.098 0 0 1 1077.289 20.5 A 53.503 53.503 0 0 1 1087.842 11.964 A 57.386 57.386 0 0 1 1113.976 3.627 A 70.324 70.324 0 0 1 1119.434 3.419 A 62.954 62.954 0 0 1 1138.602 6.255 A 55.472 55.472 0 0 1 1151.025 11.964 A 55.263 55.263 0 0 1 1170.422 32.6 A 67.879 67.879 0 0 1 1172.412 36.475 Q 1179.98 52.442 1179.98 73.34 Z M 1247.168 41.895 L 1275.488 41.895 L 1275.488 153.321 Q 1275.488 167.174 1269.662 176.151 A 29.812 29.812 0 0 1 1266.211 180.518 A 29.892 29.892 0 0 1 1252.302 188.631 Q 1247.632 189.934 1242.069 190.179 A 59.626 59.626 0 0 1 1239.453 190.235 Q 1232.129 190.235 1225.488 188.575 L 1225.488 166.212 A 69.003 69.003 0 0 0 1229.405 166.781 Q 1231.267 166.994 1232.918 167.06 A 36.184 36.184 0 0 0 1234.375 167.09 A 17.325 17.325 0 0 0 1239.515 166.394 Q 1245.165 164.638 1246.644 158.456 A 21.289 21.289 0 0 0 1247.168 153.516 L 1247.168 41.895 Z M 1036.035 5.372 L 1036.035 147.559 L 1006.738 147.559 L 1006.738 5.372 L 1036.035 5.372 Z M 216.113 80.176 L 216.113 73.243 Q 216.113 50.88 208.105 39.258 Q 200.098 27.637 185.254 27.637 A 30.153 30.153 0 0 0 174.951 29.319 A 25.599 25.599 0 0 0 162.5 39.112 A 38.517 38.517 0 0 0 157.489 49.586 Q 155.878 54.67 155.105 60.887 A 100.049 100.049 0 0 0 154.395 72.755 L 154.395 79.688 A 95.783 95.783 0 0 0 155.177 92.345 Q 156.897 105.219 162.402 113.477 A 26.484 26.484 0 0 0 171.81 122.295 Q 177.695 125.489 185.449 125.489 Q 200.177 125.489 208.086 113.945 A 31.989 31.989 0 0 0 208.105 113.917 Q 213.742 105.671 215.411 92.046 A 101.503 101.503 0 0 0 216.113 80.176 Z M 597.949 80.176 L 597.949 73.243 Q 597.949 50.88 589.941 39.258 Q 581.934 27.637 567.09 27.637 A 30.153 30.153 0 0 0 556.787 29.319 A 25.599 25.599 0 0 0 544.336 39.112 A 38.517 38.517 0 0 0 539.325 49.586 Q 537.714 54.67 536.941 60.887 A 100.049 100.049 0 0 0 536.23 72.755 L 536.23 79.688 A 95.783 95.783 0 0 0 537.012 92.345 Q 538.733 105.219 544.238 113.477 A 26.484 26.484 0 0 0 553.646 122.295 Q 559.531 125.489 567.285 125.489 Q 582.013 125.489 589.922 113.945 A 31.989 31.989 0 0 0 589.941 113.917 Q 595.578 105.671 597.247 92.046 A 101.503 101.503 0 0 0 597.949 80.176 Z M 845.605 80.176 L 845.605 73.243 Q 845.605 50.88 837.598 39.258 Q 829.59 27.637 814.746 27.637 A 30.153 30.153 0 0 0 804.444 29.319 A 25.599 25.599 0 0 0 791.992 39.112 A 38.517 38.517 0 0 0 786.982 49.586 Q 785.37 54.67 784.597 60.887 A 100.049 100.049 0 0 0 783.887 72.755 L 783.887 79.688 A 95.783 95.783 0 0 0 784.669 92.345 Q 786.389 105.219 791.895 113.477 A 26.484 26.484 0 0 0 801.302 122.295 Q 807.187 125.489 814.941 125.489 Q 829.669 125.489 837.578 113.945 A 31.989 31.989 0 0 0 837.598 113.917 Q 843.234 105.671 844.904 92.046 A 101.503 101.503 0 0 0 845.605 80.176 Z M 1150.293 80.176 L 1150.293 73.243 Q 1150.293 50.88 1142.285 39.258 Q 1134.277 27.637 1119.434 27.637 A 30.153 30.153 0 0 0 1109.131 29.319 A 25.599 25.599 0 0 0 1096.68 39.112 A 38.517 38.517 0 0 0 1091.669 49.586 Q 1090.058 54.67 1089.285 60.887 A 100.049 100.049 0 0 0 1088.574 72.755 L 1088.574 79.688 A 95.783 95.783 0 0 0 1089.356 92.345 Q 1091.077 105.219 1096.582 113.477 A 26.484 26.484 0 0 0 1105.989 122.295 Q 1111.874 125.489 1119.629 125.489 Q 1134.357 125.489 1142.266 113.945 A 31.989 31.989 0 0 0 1142.285 113.917 Q 1147.921 105.671 1149.591 92.046 A 101.503 101.503 0 0 0 1150.293 80.176 Z M 29.297 29.102 L 29.297 73.731 L 55.469 73.731 Q 63.407 73.731 68.771 71.179 A 18.471 18.471 0 0 0 73.193 68.262 A 17.738 17.738 0 0 0 78.64 58.798 A 27.201 27.201 0 0 0 79.297 52.637 A 28.857 28.857 0 0 0 78.358 45.085 A 21.382 21.382 0 0 0 73.145 35.743 A 20.78 20.78 0 0 0 62.543 29.852 A 30.671 30.671 0 0 0 56.152 29.102 L 29.297 29.102 Z M 296.387 29.102 L 296.387 71.778 L 320.02 71.778 A 34.892 34.892 0 0 0 326.725 71.173 Q 333.041 69.935 337.109 66.163 Q 343.164 60.548 343.164 50.684 A 28.578 28.578 0 0 0 342.458 44.143 A 19.066 19.066 0 0 0 337.451 34.864 A 17.651 17.651 0 0 0 330.62 30.681 Q 326.107 29.102 319.922 29.102 L 296.387 29.102 Z M 1188.965 133.692 Q 1188.965 126.954 1193.506 122.755 A 15.664 15.664 0 0 1 1203.006 118.638 A 20.786 20.786 0 0 1 1204.883 118.555 A 18.801 18.801 0 0 1 1210.4 119.331 A 15.216 15.216 0 0 1 1216.357 122.755 A 13.94 13.94 0 0 1 1220.859 132.451 A 18.99 18.99 0 0 1 1220.898 133.692 A 15.981 15.981 0 0 1 1220.099 138.852 A 13.457 13.457 0 0 1 1216.406 144.483 A 15.435 15.435 0 0 1 1207.939 148.42 A 21.191 21.191 0 0 1 1204.883 148.633 A 18.975 18.975 0 0 1 1199.467 147.895 A 15.041 15.041 0 0 1 1193.457 144.483 A 13.776 13.776 0 0 1 1188.998 134.815 A 18.727 18.727 0 0 1 1188.965 133.692 Z M 1245.779 9.302 A 15.495 15.495 0 0 0 1244.922 14.551 A 18.338 18.338 0 0 0 1244.948 15.544 A 13.653 13.653 0 0 0 1249.268 25.098 A 14.494 14.494 0 0 0 1255.787 28.623 A 20.187 20.187 0 0 0 1260.742 29.2 Q 1267.871 29.2 1272.217 25.098 A 13.375 13.375 0 0 0 1275.731 19.742 A 15.586 15.586 0 0 0 1276.562 14.551 A 18.343 18.343 0 0 0 1276.545 13.743 A 13.733 13.733 0 0 0 1272.314 4.102 A 14.141 14.141 0 0 0 1265.585 0.525 A 21.109 21.109 0 0 0 1260.742 0.001 A 26.405 26.405 0 0 0 1260.722 0.001 Q 1258.101 0.003 1255.875 0.53 A 14.134 14.134 0 0 0 1249.17 4.102 A 13.452 13.452 0 0 0 1245.779 9.302 Z" vector-effect="non-scaling-stroke"/></g></svg>